# Blender v2.83.2 OBJ File: 'Miberium_Meshes_003.blend'
# www.blender.org
o miberium_magnum_Circle.001
v 0.033437 -0.498048 -0.390183
v 0.032543 -0.358411 -0.067059
v 0.363099 -0.499095 -0.048573
v 0.362436 -0.498504 -0.241363
v 0.225886 -0.498071 -0.382862
v 0.185208 0.170135 -0.483572
v 0.060196 0.216745 -0.362565
v 0.060196 0.248756 -0.185312
v 0.185208 0.247417 -0.055646
v 0.362003 0.213511 -0.049522
v 0.487015 0.166901 -0.170529
v 0.487015 0.134890 -0.347782
v 0.362002 0.136230 -0.477449
v 0.318579 0.419166 -0.307499
v 0.041329 -0.500000 0.246623
v 0.203277 -0.500023 0.254196
v 0.351748 -0.499641 0.129448
v 0.169700 0.113874 0.017460
v 0.032506 0.095940 0.132784
v 0.015279 0.036673 0.301999
v 0.128110 -0.029210 0.425983
v 0.304905 -0.063116 0.432106
v 0.442098 -0.045182 0.316782
v 0.459325 0.014086 0.147566
v 0.346494 0.079969 0.023583
v 0.276235 0.243127 0.305122
v -0.145155 -0.498063 -0.385463
v -0.275332 -0.498503 -0.241758
v -0.287303 -0.499094 -0.048863
v -0.351719 0.194824 -0.476520
v -0.472165 0.176711 -0.343825
v -0.472165 0.208722 -0.166572
v -0.351719 0.272106 -0.048594
v -0.181384 0.329733 -0.059001
v -0.060939 0.347846 -0.191697
v -0.060939 0.315835 -0.368950
v -0.181384 0.252451 -0.486928
v -0.343104 0.481294 -0.307209
v -0.260752 -0.499639 0.128844
v -0.106762 -0.500013 0.251091
v -0.363899 0.169173 0.062539
v -0.463640 0.088764 0.189146
v -0.434361 0.032674 0.357788
v -0.293211 0.033762 0.469676
v -0.122876 0.091389 0.459269
v -0.023135 0.171798 0.332662
v -0.052414 0.227888 0.164021
v -0.193564 0.226800 0.052132
v -0.309672 0.340816 0.342546
v 0.005198 0.001659 -0.340343
v 0.005198 0.033670 -0.163090
v 0.315779 -0.007493 -0.014091
v 0.138985 0.026412 -0.020214
v -0.306116 -0.038688 -0.010686
v -0.135781 0.018939 -0.021093
v 0.007338 0.004115 0.272373
v 0.001312 0.061793 0.103444
vt 0.000000 1.000000
vt 0.000000 0.000000
vt 1.000000 0.000000
vt 1.000000 1.000000
vt 1.000000 1.000000
vt 0.000000 1.000000
vt 0.000000 0.000000
vt 1.000000 0.000000
vt 1.000000 1.000000
vt 0.000000 1.000000
vt 0.000000 0.000000
vt 0.000000 1.000000
vt 0.000000 0.000000
vt 1.000000 0.000000
vt 1.000000 1.000000
vt 1.000000 1.000000
vt 0.000000 1.000000
vt 1.000000 0.000000
vt 1.000000 0.000000
vt 1.000000 1.000000
vt 0.000000 1.000000
vt 0.000000 0.000000
vt 1.000000 1.000000
vt 0.000000 1.000000
vt 0.000000 0.000000
vt 0.500000 0.000000
vt 1.000000 0.500000
vt 0.000000 0.500000
vt 1.000000 0.000000
vt 0.500000 1.000000
vt 0.000000 0.000000
vt 1.000000 0.000000
vt 0.000000 0.000000
vt 1.000000 0.000000
vt 0.000000 0.000000
vt 1.000000 0.000000
vt 0.000000 0.000000
vt 1.000000 0.000000
vt 0.000000 0.000000
vt 1.000000 0.000000
vt 0.000000 0.000000
vt 1.000000 0.000000
vt 0.000000 0.000000
vt 1.000000 0.000000
vt 0.000000 0.000000
vt 1.000000 0.500000
vt 0.000000 0.500000
vt 1.000000 1.000000
vt 0.000000 1.000000
vt 0.000000 0.000000
vt 1.000000 0.000000
vt 1.000000 0.000000
vt 1.000000 1.000000
vt 0.000000 1.000000
vt 0.000000 0.000000
vt 1.000000 0.000000
vt 1.000000 1.000000
vt 0.000000 1.000000
vt 0.000000 0.000000
vt 0.000000 1.000000
vt 0.000000 0.000000
vt 1.000000 0.000000
vt 1.000000 1.000000
vt 1.000000 0.000000
vt 1.000000 1.000000
vt 0.000000 1.000000
vt 1.000000 0.000000
vt 1.000000 1.000000
vt 0.000000 1.000000
vt 0.000000 0.000000
vt 0.000000 0.000000
vt 1.000000 1.000000
vt 0.000000 1.000000
vt 1.000000 0.000000
vt 0.500000 1.000000
vt 0.000000 0.000000
vt 1.000000 0.000000
vt 0.000000 0.000000
vt 1.000000 0.000000
vt 0.000000 0.000000
vt 1.000000 0.000000
vt 0.000000 0.000000
vt 1.000000 0.000000
vt 0.000000 0.000000
vt 1.000000 0.000000
vt 0.000000 0.000000
vt 1.000000 0.000000
vt 0.000000 0.000000
vt 1.000000 0.000000
vt 0.000000 0.000000
vt 1.000000 0.000000
vt 1.000000 1.000000
vt 0.000000 1.000000
vt 0.000000 0.000000
vt 1.000000 0.000000
vt 1.000000 1.000000
vt 0.000000 1.000000
vt 1.000000 1.000000
vt 0.000000 1.000000
vt 0.000000 0.000000
vt 1.000000 0.000000
vt 0.000000 1.000000
vt 0.000000 0.000000
vt 1.000000 0.000000
vt 1.000000 1.000000
vt 1.000000 1.000000
vt 0.000000 1.000000
vt 0.000000 0.000000
vt 1.000000 1.000000
vt 0.000000 1.000000
vt 1.000000 0.000000
vt 1.000000 0.500000
vt 0.000000 0.500000
vt 0.000000 1.000000
vt 1.000000 1.000000
vt 1.000000 0.000000
vt 0.500000 1.000000
vt 0.000000 0.000000
vt 1.000000 0.000000
vt 0.000000 0.000000
vt 1.000000 0.000000
vt 0.000000 0.000000
vt 1.000000 0.000000
vt 0.000000 0.000000
vt 1.000000 0.000000
vt 0.000000 0.000000
vt 1.000000 0.000000
vt 0.000000 0.000000
vt 1.000000 0.000000
vt 0.000000 0.000000
vt 1.000000 0.000000
vt 0.000000 0.000000
vt 1.000000 1.000000
vt 0.000000 1.000000
vt 1.000000 0.000000
vt 0.000000 1.000000
vt 0.000000 0.000000
vt 1.000000 1.000000
vt 1.000000 1.000000
vt 0.000000 1.000000
vt 0.000000 0.000000
vt 1.000000 0.000000
vt 1.000000 1.000000
vt 0.000000 1.000000
vt 0.000000 0.000000
vt 1.000000 0.000000
vt 1.000000 1.000000
vt 0.000000 1.000000
vt 1.000000 0.500000
vt 0.000000 0.500000
vt 0.000000 1.000000
vt 1.000000 1.000000
vt 1.000000 0.000000
vt 1.000000 1.000000
vt 0.000000 1.000000
vt 0.000000 0.000000
vt 1.000000 0.000000
vt 0.500000 1.000000
vt 0.000000 0.000000
vt 1.000000 0.000000
vt 0.000000 0.000000
vt 1.000000 0.000000
vt 0.000000 0.000000
vt 1.000000 0.000000
vt 0.000000 0.000000
vt 1.000000 0.000000
vt 0.000000 0.000000
vt 0.998880 -0.001562
vt 0.001562 0.001806
vt 1.000000 0.000000
vt 0.000000 0.000000
vt 1.000000 0.000000
vt 0.000000 0.000000
vt 1.000000 1.000000
vt 0.000000 1.000000
vt 1.000000 1.000000
vt 0.000000 1.000000
vt 1.000000 1.000000
vt 0.000000 1.000000
vt 1.000000 1.000000
vt 0.000000 1.000000
vn 0.6937 0.0990 -0.7135
vn 0.0224 -0.1477 -0.9888
vn 0.9826 -0.1854 0.0140
vn 0.9786 0.2027 -0.0366
vn -0.9690 0.2432 -0.0439
vn 0.6961 -0.2499 -0.6731
vn -0.6520 0.0536 -0.7563
vn -0.7220 0.1167 0.6820
vn 0.1298 0.7859 0.6046
vn -0.5912 0.7937 -0.1433
vn 0.6395 0.4656 -0.6117
vn 0.6396 0.6499 0.4105
vn -0.3801 0.8454 0.3752
vn -0.3799 0.6610 -0.6471
vn 0.1298 0.5251 -0.8411
vn 0.8507 0.5173 -0.0934
vn -0.6076 0.2594 -0.7507
vn 0.0187 0.1238 0.9921
vn 0.9775 -0.2063 0.0449
vn -0.0730 -0.3521 0.9331
vn -0.1556 0.2894 -0.9445
vn -0.7807 0.0147 -0.6248
vn 0.6020 -0.4103 0.6850
vn -0.7301 -0.0612 0.6806
vn 0.0421 0.3860 0.9215
vn -0.6086 0.7662 0.2064
vn 0.6718 0.7012 -0.2387
vn 0.5726 0.3592 0.7370
vn -0.4472 0.5546 0.7017
vn -0.3476 0.8967 -0.2741
vn 0.1827 0.8697 -0.4584
vn 0.8333 0.4898 0.2564
vn -0.6972 -0.2976 -0.6522
vn -0.0207 -0.1349 -0.9906
vn 0.9680 0.2503 -0.0169
vn -0.8982 0.4237 0.1168
vn -0.9636 -0.2673 -0.0085
vn -0.7926 -0.1005 0.6014
vn 0.6810 0.2187 0.6988
vn 0.8218 0.0059 0.5698
vn -0.2206 0.7619 0.6090
vn -0.9153 0.3964 -0.0716
vn 0.2704 0.7055 -0.6551
vn 0.2706 0.8899 0.3671
vn -0.7118 0.5575 0.4272
vn -0.7118 0.3731 -0.5951
vn -0.2207 0.5012 -0.8367
vn 0.4739 0.8666 -0.1565
vn 0.7367 0.1044 -0.6681
vn -0.0037 0.1591 0.9873
vn 0.1017 0.3632 -0.9261
vn 0.1032 -0.3278 0.9391
vn -0.9379 -0.3333 0.0967
vn 0.5697 0.3450 -0.7459
vn 0.6734 0.0020 0.7393
vn -0.5464 -0.4743 0.6902
vn -0.0716 0.3783 0.9229
vn -0.8857 0.3721 0.2775
vn 0.2155 0.9352 -0.2810
vn 0.3846 0.6116 0.6914
vn -0.5978 0.2791 0.7515
vn -0.7666 0.6028 -0.2211
vn -0.3105 0.8360 -0.4524
vn 0.5035 0.8423 0.1927
vn 0.6981 0.1980 0.6881
vn -0.6980 0.2507 0.6707
vn -0.5033 0.5993 -0.6226
vn 0.5475 0.4218 -0.7227
g miberium_magnum_Circle.001_miberium
s off
f 36/1/1 50/2/1 1/3/1 37/4/1
f 1/3/2 6/5/2 13/6/2 5/7/2
f 4/8/3 12/9/3 11/10/3 3/11/3
f 35/12/4 51/13/4 50/14/4 36/15/4
f 8/16/5 7/17/5 50/2/5 51/18/5
f 5/19/6 13/20/6 12/21/6 4/22/6
f 7/23/7 6/24/7 1/25/7 50/14/7
f 2/26/8 53/27/8 51/28/8
f 10/29/9 14/30/9 9/31/9
f 8/32/10 14/30/10 7/33/10
f 13/34/11 14/30/11 12/35/11
f 11/36/12 14/30/12 10/37/12
f 9/38/13 14/30/13 8/39/13
f 7/40/14 14/30/14 6/41/14
f 6/42/15 14/30/15 13/43/15
f 12/44/16 14/30/16 11/45/16
f 2/26/17 57/46/17 53/47/17
f 34/48/18 33/49/18 54/50/18 55/51/18
f 3/52/19 24/53/19 23/54/19 17/55/19
f 16/56/20 22/57/20 21/58/20 15/59/20
f 48/60/21 55/61/21 54/62/21 41/63/21
f 54/50/22 29/64/22 42/65/22 41/66/22
f 17/67/23 23/68/23 22/69/23 16/70/23
f 29/71/24 54/62/24 33/72/24 32/73/24
f 22/74/25 26/75/25 21/76/25
f 20/77/26 26/75/26 19/78/26
f 25/79/27 26/75/27 24/80/27
f 23/81/28 26/75/28 22/82/28
f 21/83/29 26/75/29 20/84/29
f 19/85/30 26/75/30 18/86/30
f 18/87/31 26/75/31 25/88/31
f 24/89/32 26/75/32 23/90/32
f 28/91/33 31/92/33 30/93/33 27/94/33
f 27/95/34 30/96/34 37/97/34 1/25/34
f 47/98/35 46/99/35 56/100/35 57/101/35
f 19/102/36 57/103/36 56/104/36 20/105/36
f 29/64/37 32/106/37 31/107/37 28/108/37
f 21/109/38 20/110/38 56/100/38 15/111/38
f 2/26/39 51/112/39 55/113/39
f 45/114/40 15/59/40 56/104/40 46/115/40
f 34/116/41 38/117/41 33/118/41
f 32/119/42 38/117/42 31/120/42
f 37/121/43 38/117/43 36/122/43
f 35/123/44 38/117/44 34/124/44
f 33/125/45 38/117/45 32/126/45
f 31/127/46 38/117/46 30/128/46
f 30/129/47 38/117/47 37/130/47
f 36/131/48 38/117/48 35/132/48
f 25/133/49 24/134/49 3/11/49 52/135/49
f 9/136/50 53/137/50 52/135/50 10/138/50
f 18/139/51 25/140/51 52/141/51 53/142/51
f 15/111/52 45/143/52 44/144/52 40/145/52
f 39/146/53 43/147/53 42/148/53 29/71/53
f 2/26/54 55/149/54 57/150/54
f 10/151/55 52/141/55 3/52/55 11/152/55
f 40/153/56 44/154/56 43/155/56 39/156/56
f 45/157/57 49/158/57 44/159/57
f 43/160/58 49/158/58 42/161/58
f 48/162/59 49/158/59 47/163/59
f 46/164/60 49/158/60 45/165/60
f 44/166/61 49/158/61 43/167/61
f 42/168/62 49/158/62 41/169/62
f 41/170/63 49/158/63 48/171/63
f 47/172/64 49/158/64 46/173/64
f 55/113/65 51/112/65 35/174/65 34/175/65
f 51/28/66 53/27/66 9/176/66 8/177/66
f 53/47/67 57/46/67 19/178/67 18/179/67
f 57/150/68 55/149/68 48/180/68 47/181/68
